<svg width="264" height="82" viewBox="0 0 264 82" fill="none" xmlns="http://www.w3.org/2000/svg">
<path d="M25.5575 13.7525V66.5375H3.08002V13.7525H25.5575Z" fill="#FDD329"/>
<path fill-rule="evenodd" clip-rule="evenodd" d="M56.6188 24.3781L58.4708 26.2344H82.1844C83.8627 26.2344 85.4723 26.9011 86.659 28.0878C87.8458 29.2746 88.5125 30.8842 88.5125 32.5625V53.6562C88.5125 55.3346 87.8458 56.9442 86.659 58.1309C85.4723 59.3177 83.8627 59.9844 82.1844 59.9844H44.2156C42.5373 59.9844 40.9277 59.3177 39.741 58.1309C38.5542 56.9442 37.8875 55.3346 37.8875 53.6562V26.2344C37.8875 24.5561 38.5542 22.9465 39.741 21.7597C40.9277 20.573 42.5373 19.9062 44.2156 19.9062H49.5186C50.3501 19.9064 51.1733 20.0705 51.9414 20.389C52.7094 20.7075 53.4071 21.1742 53.9947 21.7625L56.6188 24.3781ZM31.5594 26.2344C31.5594 22.8777 32.8928 19.6586 35.2663 17.2851C37.6398 14.9115 40.859 13.5781 44.2156 13.5781H49.5186C51.1812 13.5779 52.8276 13.9053 54.3636 14.5416C55.8997 15.1779 57.2953 16.1106 58.4708 17.2864L61.0906 19.9062H82.1844C85.541 19.9062 88.7602 21.2397 91.1337 23.6132C93.5072 25.9867 94.8406 29.2059 94.8406 32.5625V53.6562C94.8406 57.0129 93.5072 60.2321 91.1337 62.6056C88.7602 64.9791 85.541 66.3125 82.1844 66.3125H44.2156C40.859 66.3125 37.6398 64.9791 35.2663 62.6056C32.8928 60.2321 31.5594 57.0129 31.5594 53.6562V26.2344ZM49.4891 34.6719C48.6499 34.6719 47.8451 35.0052 47.2517 35.5986C46.6584 36.192 46.325 36.9968 46.325 37.8359C46.325 38.6751 46.6584 39.4799 47.2517 40.0733C47.8451 40.6666 48.6499 41 49.4891 41H76.9109C77.7501 41 78.5549 40.6666 79.1483 40.0733C79.7417 39.4799 80.075 38.6751 80.075 37.8359C80.075 36.9968 79.7417 36.192 79.1483 35.5986C78.5549 35.0052 77.7501 34.6719 76.9109 34.6719H49.4891Z" fill="#FDD329"/>
<path d="M121.24 46.895C99.8425 45.2075 99.505 35.7575 99.505 30.965C99.505 19.4225 109.698 12.6725 124.278 12.6725C133.795 12.6725 141.963 15.2375 148.375 18.7475V35.3525C139.938 30.4925 132.108 29.9525 124.278 29.9525V31.8425C139.938 31.8425 149.05 36.7025 149.05 47.57C149.05 59.7875 140.208 67.6175 124.953 67.6175C117.123 67.6175 108.685 65.255 100.18 59.1125V43.8575C106.66 46.895 114.355 48.785 121.24 48.785V46.895Z" fill="#FDD329"/>
<path d="M176.04 46.895C154.643 45.2075 154.305 35.7575 154.305 30.965C154.305 19.4225 164.498 12.6725 179.078 12.6725C188.595 12.6725 196.763 15.2375 203.175 18.7475V35.3525C194.738 30.4925 186.908 29.9525 179.078 29.9525V31.8425C194.738 31.8425 203.85 36.7025 203.85 47.57C203.85 59.7875 195.008 67.6175 179.753 67.6175C171.923 67.6175 163.485 65.255 154.98 59.1125V43.8575C161.46 46.895 169.155 48.785 176.04 48.785V46.895Z" fill="#FDD329"/>
<path d="M231.65 66.47H207.35L223.55 13.7525H246.5L262.7 66.47H238.4L235.025 55.535L231.65 66.47ZM227.33 38.39L226.115 40.2125C231.245 42.6425 238.13 43.25 244.543 43.25V41.225C238.13 41.225 231.988 40.415 227.33 38.39Z" fill="#FDD329"/>
</svg>
