<svg width="78" height="24" viewBox="0 0 78 24" fill="none" xmlns="http://www.w3.org/2000/svg">
<path d="M7.82727 4.26V19.9H1.16727V4.26H7.82727Z" fill="#FDD329"/>
<path fill-rule="evenodd" clip-rule="evenodd" d="M17.05 7.075L17.5988 7.625H24.625C25.1223 7.625 25.5992 7.82254 25.9508 8.17417C26.3025 8.52581 26.5 9.00272 26.5 9.5V15.75C26.5 16.2473 26.3025 16.7242 25.9508 17.0758C25.5992 17.4275 25.1223 17.625 24.625 17.625H13.375C12.8777 17.625 12.4008 17.4275 12.0492 17.0758C11.6975 16.7242 11.5 16.2473 11.5 15.75V7.625C11.5 7.12772 11.6975 6.65081 12.0492 6.29917C12.4008 5.94754 12.8777 5.75 13.375 5.75H14.9462C15.1926 5.75005 15.4365 5.79865 15.6641 5.89303C15.8917 5.9874 16.0984 6.12569 16.2725 6.3L17.05 7.075ZM9.625 7.625C9.625 6.63044 10.0201 5.67661 10.7233 4.97335C11.4266 4.27009 12.3804 3.875 13.375 3.875H14.9462C15.4389 3.87494 15.9267 3.97195 16.3818 4.16047C16.8369 4.349 17.2505 4.62536 17.5988 4.97375L18.375 5.75H24.625C25.6196 5.75 26.5734 6.14509 27.2767 6.84835C27.9799 7.55161 28.375 8.50544 28.375 9.5V15.75C28.375 16.7446 27.9799 17.6984 27.2767 18.4017C26.5734 19.1049 25.6196 19.5 24.625 19.5H13.375C12.3804 19.5 11.4266 19.1049 10.7233 18.4017C10.0201 17.6984 9.625 16.7446 9.625 15.75V7.625ZM14.9375 10.125C14.6889 10.125 14.4504 10.2238 14.2746 10.3996C14.0988 10.5754 14 10.8139 14 11.0625C14 11.3111 14.0988 11.5496 14.2746 11.7254C14.4504 11.9012 14.6889 12 14.9375 12H23.0625C23.3111 12 23.5496 11.9012 23.7254 11.7254C23.9012 11.5496 24 11.3111 24 11.0625C24 10.8139 23.9012 10.5754 23.7254 10.3996C23.5496 10.2238 23.3111 10.125 23.0625 10.125H14.9375Z" fill="#FDD329"/>
<path d="M36.0987 14.08C29.7587 13.58 29.6587 10.78 29.6587 9.36C29.6587 5.94 32.6787 3.94 36.9987 3.94C39.8187 3.94 42.2387 4.7 44.1387 5.74V10.66C41.6387 9.22 39.3187 9.06 36.9987 9.06V9.62C41.6387 9.62 44.3387 11.06 44.3387 14.28C44.3387 17.9 41.7187 20.22 37.1987 20.22C34.8787 20.22 32.3787 19.52 29.8587 17.7V13.18C31.7787 14.08 34.0587 14.64 36.0987 14.64V14.08Z" fill="#FDD329"/>
<path d="M52.0987 14.08C45.7587 13.58 45.6587 10.78 45.6587 9.36C45.6587 5.94 48.6787 3.94 52.9987 3.94C55.8187 3.94 58.2387 4.7 60.1387 5.74V10.66C57.6387 9.22 55.3187 9.06 52.9987 9.06V9.62C57.6387 9.62 60.3387 11.06 60.3387 14.28C60.3387 17.9 57.7187 20.22 53.1987 20.22C50.8787 20.22 48.3787 19.52 45.8587 17.7V13.18C47.7787 14.08 50.0587 14.64 52.0987 14.64V14.08Z" fill="#FDD329"/>
<path d="M68.4969 19.88H61.2969L66.0969 4.26H72.8969L77.6969 19.88H70.4969L69.4969 16.64L68.4969 19.88ZM67.2169 11.56L66.8569 12.1C68.3769 12.82 70.4169 13 72.3169 13V12.4C70.4169 12.4 68.5969 12.16 67.2169 11.56Z" fill="#FDD329"/>
</svg>
