<svg width="18" height="19" viewBox="0 0 18 19" fill="none" xmlns="http://www.w3.org/2000/svg">
<path d="M10.8358 3.66421L14.8358 7.66421M1.33582 17.1642H5.33582L15.8358 6.66421C16.0985 6.40157 16.3068 6.08976 16.4489 5.7466C16.5911 5.40344 16.6642 5.03565 16.6642 4.66421C16.6642 4.29278 16.5911 3.92498 16.4489 3.58182C16.3068 3.23866 16.0985 2.92686 15.8358 2.66421C15.5732 2.40157 15.2614 2.19323 14.9182 2.05109C14.575 1.90894 14.2072 1.83578 13.8358 1.83578C13.4644 1.83578 13.0966 1.90894 12.7534 2.05109C12.4103 2.19323 12.0985 2.40157 11.8358 2.66421L1.33582 13.1642V17.1642Z" stroke="white" stroke-width="2" stroke-linecap="round" stroke-linejoin="round"/>
</svg>
