<svg width="30" height="25" viewBox="0 0 30 25" fill="none" xmlns="http://www.w3.org/2000/svg">
<path fill-rule="evenodd" clip-rule="evenodd" d="M6.25 16.75C6.49864 16.75 6.7371 16.829 6.91291 16.9697C7.08873 17.1103 7.1875 17.3011 7.1875 17.5V19.5C7.1875 19.638 7.3275 19.75 7.5 19.75H22.5C22.5829 19.75 22.6624 19.7237 22.721 19.6768C22.7796 19.6299 22.8125 19.5663 22.8125 19.5V17.5C22.8125 17.3011 22.9113 17.1103 23.0871 16.9697C23.2629 16.829 23.5014 16.75 23.75 16.75C23.9986 16.75 24.2371 16.829 24.4129 16.9697C24.5887 17.1103 24.6875 17.3011 24.6875 17.5V19.5C24.6875 19.9641 24.457 20.4092 24.0468 20.7374C23.6366 21.0656 23.0802 21.25 22.5 21.25H7.5C6.91984 21.25 6.36344 21.0656 5.9532 20.7374C5.54297 20.4092 5.3125 19.9641 5.3125 19.5V17.5C5.3125 17.3011 5.41127 17.1103 5.58709 16.9697C5.7629 16.829 6.00136 16.75 6.25 16.75ZM13.4225 16.627C13.1123 16.6272 12.8132 16.5344 12.5844 16.3668C12.3555 16.1993 12.2135 15.9692 12.1862 15.722C11.9947 13.9695 11.9613 12.2083 12.0862 10.452C11.7773 10.4382 11.4686 10.4222 11.16 10.404L9.2975 10.295C9.13347 10.2854 8.97537 10.2419 8.83867 10.1687C8.70197 10.0955 8.59136 9.99524 8.51766 9.87761C8.44395 9.75999 8.40968 9.62907 8.4182 9.49767C8.42672 9.36627 8.47773 9.23889 8.56625 9.128C9.89361 7.46587 11.604 6.02087 13.6063 4.87L14.3525 4.441C14.5412 4.33258 14.7677 4.27426 15 4.27426C15.2323 4.27426 15.4588 4.33258 15.6475 4.441L16.3937 4.871C18.3959 6.02159 20.1062 7.46625 21.4338 9.128C21.5223 9.23889 21.5733 9.36627 21.5818 9.49767C21.5903 9.62907 21.556 9.75999 21.4823 9.87761C21.4086 9.99524 21.298 10.0955 21.1613 10.1687C21.0246 10.2419 20.8665 10.2854 20.7025 10.295L18.84 10.404C18.5325 10.422 18.2238 10.438 17.915 10.451C18.04 12.208 18.005 13.969 17.8125 15.721C17.7856 15.9682 17.6439 16.1984 17.4152 16.3661C17.1866 16.5339 16.8877 16.6269 16.5775 16.627H13.4225Z" fill="white"/>
</svg>
